<?xml version="1.0" encoding="UTF-8" standalone="no"?>
<!-- Generator: Adobe Illustrator 19.1.0, SVG Export Plug-In . SVG Version: 6.00 Build 0)  -->

<svg
   xmlns:dc="http://purl.org/dc/elements/1.1/"
   xmlns:cc="http://creativecommons.org/ns#"
   xmlns:rdf="http://www.w3.org/1999/02/22-rdf-syntax-ns#"
   xmlns:svg="http://www.w3.org/2000/svg"
   xmlns="http://www.w3.org/2000/svg"
   xmlns:sodipodi="http://sodipodi.sourceforge.net/DTD/sodipodi-0.dtd"
   xmlns:inkscape="http://www.inkscape.org/namespaces/inkscape"
   version="1.1"
   id="Layer_1"
   x="0px"
   y="0px"
   width="660"
   height="354"
   viewBox="0 0 660 354"
   enable-background="new 0 0 760 454"
   xml:space="preserve"
   sodipodi:docname="devices.svg"
   inkscape:version="0.92.4 (5da689c313, 2019-01-14)"><metadata
   id="metadata174"><rdf:RDF><cc:Work
       rdf:about=""><dc:format>image/svg+xml</dc:format><dc:type
         rdf:resource="http://purl.org/dc/dcmitype/StillImage" /><dc:title></dc:title></cc:Work></rdf:RDF></metadata><defs
   id="defs172" /><sodipodi:namedview
   pagecolor="#ffffff"
   bordercolor="#666666"
   borderopacity="1"
   objecttolerance="10"
   gridtolerance="10"
   guidetolerance="10"
   inkscape:pageopacity="0"
   inkscape:pageshadow="2"
   inkscape:window-width="1920"
   inkscape:window-height="1137"
   id="namedview170"
   showgrid="false"
   fit-margin-top="0"
   fit-margin-left="0"
   fit-margin-right="0"
   fit-margin-bottom="0"
   inkscape:zoom="2.0660793"
   inkscape:cx="330"
   inkscape:cy="177"
   inkscape:window-x="-8"
   inkscape:window-y="-8"
   inkscape:window-maximized="1"
   inkscape:current-layer="Layer_1" />
<g
   id="g121"
   transform="translate(-50,-50)">
	<path
   d="m 101,52 h 437 c 4.41797,0 8,3.582 8,8 V 380 H 93 V 60 c 0,-4.418 3.582,-8 8,-8 z"
   id="path93"
   inkscape:connector-curvature="0"
   style="fill:#c7d7e2;stroke:#83a6bf;stroke-width:4;stroke-linejoin:round" />
	<path
   d="m 525.14301,392.08099 c -63.53201,0 -205.71402,-0.063 -205.71402,-0.063 0,0 -142.18299,0.063 -205.71499,0.063 C 50.183,392.08099 52,380.125 52,380.125 c 0,-0.24799 0,-0.651 0,-1.28699 0,-2.65402 2.571,-2.823 2.571,-2.823 H 319.42897 584.286 c 0,0 2.57098,0.16898 2.57098,2.823 0,0.63599 0,1.039 0,1.28699 10e-6,0 1.81703,11.95599 -61.71397,11.95599 z"
   id="path95"
   inkscape:connector-curvature="0"
   style="fill:#c7d7e2;stroke:#83a6bf;stroke-width:4;stroke-linejoin:round" />
	<g
   id="g119">
		<rect
   x="115"
   y="74"
   width="409"
   height="281"
   id="rect97"
   style="fill:#ffffff" />
		<rect
   x="115"
   y="73"
   enable-background="new    "
   width="409"
   height="18"
   id="rect99"
   style="fill:#dce9f1" />
		<rect
   x="115"
   y="178"
   enable-background="new    "
   width="409"
   height="18"
   id="rect101"
   style="fill:#dce9f1" />
		<rect
   x="115"
   y="337"
   enable-background="new    "
   width="409"
   height="18"
   id="rect103"
   style="fill:#dce9f1" />
		<path
   d="m 122.001,350.05957 v -8.11801 c 0,-0.84302 0.695,-1.18201 1.558,-0.76102 l 6.79299,4.05801 c 0.85602,0.422 0.85602,1.10599 0,1.52701 l -6.79299,4.05499 c -0.856,0.421 -1.558,0.076 -1.558,-0.76098 z"
   id="path105"
   inkscape:connector-curvature="0"
   style="fill:#acc7d5" />
		<rect
   x="115"
   y="91"
   enable-background="new    "
   width="409"
   height="87"
   id="rect107"
   style="opacity:0.3;fill:#f1f6f9" />
		<rect
   x="242"
   y="269"
   enable-background="new    "
   width="260"
   height="57"
   id="rect109"
   style="fill:#f6f9fb" />
		<rect
   x="242"
   y="204"
   width="260"
   height="54"
   id="rect111"
   style="fill:#f6f9fb" />
		<rect
   x="132"
   y="204"
   enable-background="new    "
   width="100"
   height="97"
   id="rect113"
   style="fill:#f6f9fb" />
		<circle
   cx="320"
   cy="135"
   r="24"
   id="circle115"
   style="fill:#dce9f1" />
		
			<rect
   x="115"
   y="74"
   width="409"
   height="281"
   id="rect117"
   style="fill:#ffffff;fill-opacity:0;stroke:#abc3d2;stroke-width:2;stroke-linejoin:round" />
	</g>
</g>
<g
   id="g147"
   transform="translate(-50,-50)">
	<path
   enable-background="new    "
   d="m 454.57101,393.853 -25.71402,-4.147 V 374.26502 H 398 V 140.073 c 0,0 -2.92099,-19.158 18,-19.158 49.09799,0 167.14301,0 167.14301,0 0,0 0,7.965 0,23.01899 0,79.11801 -128.572,249.91901 -128.572,249.91901 z"
   id="path123"
   inkscape:connector-curvature="0"
   style="fill:#39688a;fill-opacity:0.06000001" />
	<path
   d="m 454,98 h 185 c 4.41827,0 8,3.58172 8,8 v 282 c 0,4.41827 -3.58173,8 -8,8 H 454 c -4.41827,0 -8,-3.58173 -8,-8 V 106 c 0,-4.41828 3.58173,-8 8,-8 z"
   id="path125"
   inkscape:connector-curvature="0"
   style="fill:#c7d7e2;stroke:#83a6bf;stroke-width:4;stroke-linejoin:round" />
	<g
   id="g145">
		<rect
   x="457"
   y="124"
   width="179"
   height="247"
   id="rect127"
   style="fill:#ffffff" />
		<rect
   x="457"
   y="124"
   enable-background="new    "
   width="179"
   height="15"
   id="rect129"
   style="fill:#dce9f1" />
		<rect
   x="457"
   y="206"
   enable-background="new    "
   width="179"
   height="15"
   id="rect131"
   style="fill:#dce9f1" />
		<rect
   x="457"
   y="139"
   enable-background="new    "
   width="179"
   height="67"
   id="rect133"
   style="opacity:0.3;fill:#f1f6f9" />
		<path
   enable-background="new    "
   d="m 463,351 v -34 h 163 v 34 z m 0,-79 h 163 v 37 H 463 Z m 0,-45 h 163 v 37 H 463 Z"
   id="path135"
   inkscape:connector-curvature="0"
   style="fill:#f6f9fb" />
		<circle
   cx="547"
   cy="173"
   r="19"
   id="circle137"
   style="fill:#dce9f1" />
		<rect
   x="457"
   y="353"
   enable-background="new    "
   width="179"
   height="18"
   id="rect139"
   style="fill:#dce9f1" />
		<path
   d="m 464.00101,366.05957 v -8.11902 c 0,-0.84201 0.69501,-1.181 1.55899,-0.76001 l 6.79199,4.05801 c 0.85602,0.422 0.85602,1.10599 0,1.52701 l -6.79199,4.05499 c -0.857,0.421 -1.55899,0.076 -1.55899,-0.76098 z"
   id="path141"
   inkscape:connector-curvature="0"
   style="fill:#acc7d5" />
		
			<rect
   x="457"
   y="124"
   width="179"
   height="247"
   id="rect143"
   style="fill:#ffffff;fill-opacity:0;stroke:#abc3d2;stroke-width:2;stroke-linejoin:round" />
	</g>
</g>
<g
   id="g167"
   transform="translate(-50,-50)">
	<path
   d="m 606.88501,235.013 h 28.37598 c 4.27399,0 7.73901,3.46201 7.73901,7.73399 v 145.65199 c 0,4.272 -3.46503,7.73401 -7.73901,7.73401 L 614.62402,400 c -4.27405,0 -17.87903,-2.91 -20.63702,-6.44501 V 247.903 c 0,-7.30099 2.92798,-12.89 12.89801,-12.89 z"
   id="path149"
   inkscape:connector-curvature="0"
   style="fill:#39688a;fill-opacity:0.06000001" />
	<path
   d="m 617,216 h 85 c 3.31372,0 6,2.68629 6,6 v 174 c 0,3.31372 -2.68628,6 -6,6 h -85 c -3.31372,0 -6,-2.68628 -6,-6 V 222 c 0,-3.31371 2.68628,-6 6,-6 z"
   id="path151"
   inkscape:connector-curvature="0"
   style="fill:#c7d7e2;stroke:#83a6bf;stroke-width:4;stroke-linejoin:round" />
	<g
   id="g165">
		<rect
   x="621"
   y="237"
   width="77"
   height="145"
   id="rect153"
   style="fill:#ffffff" />
		<rect
   x="621"
   y="237"
   enable-background="new    "
   width="77"
   height="15"
   id="rect155"
   style="fill:#dce9f1" />
		<path
   enable-background="new    "
   d="m 626,356 v -48 h 67 v 48 z m 0,-101 h 67 v 48 h -67 z"
   id="path157"
   inkscape:connector-curvature="0"
   style="fill:#f6f9fb" />
		<rect
   x="621"
   y="364"
   enable-background="new    "
   width="77"
   height="18"
   id="rect159"
   style="fill:#dce9f1" />
		<path
   d="m 627.00098,377.05957 v -8.11801 c 0,-0.84302 0.69501,-1.18201 1.55804,-0.76102 l 6.79297,4.05801 c 0.85602,0.422 0.85602,1.10599 0,1.52701 l -6.79297,4.05499 c -0.85602,0.421 -1.55804,0.076 -1.55804,-0.76098 z"
   id="path161"
   inkscape:connector-curvature="0"
   style="fill:#acc7d5" />
		<rect
   x="621"
   y="237"
   width="77"
   height="145"
   id="rect163"
   style="fill:none;stroke:#abc3d2;stroke-width:2;stroke-linejoin:round" />
	</g>
</g>
</svg>